# xmcd CD database file
#
# Track frame offsets:
#	183
#	32270
#	57658
#	84233
#	121645
#	171520
#	203095
#
# Disc length: 3242 seconds
#
# Revision: 0
# Processed by: cddbd v1.5.2PL0 Copyright (c) Steve Scherf et al.
# Submitted via: CDex 1.70beta2
#
DISCID=510ca807
DTITLE=Don Sickler - Birdology
DYEAR=1900
DGENRE=Jazz
TTITLE0=Shawnuff
TTITLE1=Billie's Bounce
TTITLE2=Relaxin At Camarillo
TTITLE3=Don't Blame Me
TTITLE4=Scrapple From The Apple
TTITLE5=Dewey Square
TTITLE6=Big Foot
EXTD=
EXTT0=
EXTT1=
EXTT2=
EXTT3=
EXTT4=
EXTT5=
EXTT6=
PLAYORDER=
